<svg xmlns="http://www.w3.org/2000/svg" fill="none" height="64" width="64"><path fill="#000" d="M63.36 31.085a1.596 1.596 0 0 0-1.411-1.499l-3.866-.625a.817.817 0 0 1-.678-.704c-.074-.475-.151-.968-.257-1.436a.833.833 0 0 1 .397-.882l3.434-1.907a1.56 1.56 0 0 0 .754-1.934l-.595-1.644a1.555 1.555 0 0 0-1.83-.981l-3.851.754a.83.83 0 0 1-.878-.424 27.31 27.31 0 0 0-.723-1.27.843.843 0 0 1 .066-.98l2.563-2.96a1.57 1.57 0 0 0 .059-2.075l-1.12-1.344a1.544 1.544 0 0 0-2.046-.301l-3.373 2.025a.813.813 0 0 1-.964-.095 39.629 39.629 0 0 0-1.11-.934.82.82 0 0 1-.26-.936l1.396-3.678a1.559 1.559 0 0 0-.65-1.971l-1.521-.888a1.552 1.552 0 0 0-2.028.427l-2.465 3.096a.693.693 0 0 1-.844.26c-.092-.038-.87-.356-1.475-.558a.818.818 0 0 1-.564-.789l.06-3.93a1.58 1.58 0 0 0-1.293-1.64L36.561.96a1.576 1.576 0 0 0-1.772 1.08l-1.281 3.741a.823.823 0 0 1-.808.55h-1.47a.83.83 0 0 1-.8-.553l-1.275-3.72A1.577 1.577 0 0 0 27.38.967l-1.729.301a1.578 1.578 0 0 0-1.29 1.627l.06 3.944a.82.82 0 0 1-.582.792c-.345.134-1.095.42-1.435.547-.302.109-.63-.01-.896-.316l-2.452-3.016a1.552 1.552 0 0 0-2.029-.436l-1.517.88a1.563 1.563 0 0 0-.65 1.985l1.394 3.67a.835.835 0 0 1-.257.94c-.366.3-.742.602-1.115.937a.81.81 0 0 1-.958.096l-3.333-2.064a1.566 1.566 0 0 0-2.052.302l-1.114 1.34a1.554 1.554 0 0 0 .055 2.073l2.575 2.958a.816.816 0 0 1 .068.973c-.258.41-.503.841-.726 1.272a.834.834 0 0 1-.884.426l-3.846-.744a1.56 1.56 0 0 0-1.83.982l-.603 1.64a1.565 1.565 0 0 0 .753 1.937l3.435 1.908a.813.813 0 0 1 .4.892l-.037.192c-.078.42-.15.818-.22 1.242a.826.826 0 0 1-.672.7l-3.874.625A1.572 1.572 0 0 0 .64 31.12v1.746a1.547 1.547 0 0 0 1.381 1.547l3.872.624a.816.816 0 0 1 .678.704c.074.476.151.968.257 1.435a.833.833 0 0 1-.397.882l-3.433 1.91a1.56 1.56 0 0 0-.754 1.935l.603 1.643a1.556 1.556 0 0 0 1.83.982l3.851-.747a.828.828 0 0 1 .878.424c.226.422.469.849.723 1.27a.842.842 0 0 1-.066.98L7.5 49.413a1.57 1.57 0 0 0-.075 2.076l1.117 1.344a1.544 1.544 0 0 0 2.047.301l3.373-2.025a.814.814 0 0 1 .963.095c.374.327.754.642 1.111.934a.824.824 0 0 1 .261.936L14.9 56.753a1.56 1.56 0 0 0 .65 1.971l1.524.88a1.553 1.553 0 0 0 2.028-.425l2.495-3.068c.21-.26.543-.377.788-.277.525.217.876.34 1.5.547a.82.82 0 0 1 .564.789l-.06 3.927a1.584 1.584 0 0 0 1.292 1.64l1.727.302a1.572 1.572 0 0 0 1.771-1.081l1.282-3.734a.823.823 0 0 1 .808-.55h1.47a.827.827 0 0 1 .799.553l1.277 3.719a1.58 1.58 0 0 0 1.776 1.093l1.73-.301a1.579 1.579 0 0 0 1.29-1.627l-.06-3.944a.818.818 0 0 1 .565-.784c.579-.195.986-.352 1.343-.49l.09-.035c.468-.161.694.035.825.197l2.526 3.11a1.553 1.553 0 0 0 2.026.426l1.518-.879a1.559 1.559 0 0 0 .65-1.975l-1.393-3.67a.83.83 0 0 1 .255-.94c.366-.3.742-.602 1.116-.937a.813.813 0 0 1 .961-.093l3.376 2.02a1.566 1.566 0 0 0 2.052-.302l1.116-1.342a1.552 1.552 0 0 0-.056-2.072l-2.572-2.966a.816.816 0 0 1-.068-.973c.258-.408.504-.84.727-1.272a.838.838 0 0 1 .883-.425l3.842.75a1.559 1.559 0 0 0 1.83-.982l.596-1.64a1.562 1.562 0 0 0-.754-1.937l-3.438-1.91a.815.815 0 0 1-.393-.888l.036-.191c.078-.421.15-.819.22-1.243a.826.826 0 0 1 .673-.7l3.873-.624a1.572 1.572 0 0 0 1.384-1.55v-1.765zM20.775 45.257a2.381 2.381 0 0 1-3.84.401A20.362 20.362 0 0 1 17 18.271a2.384 2.384 0 0 1 3.844.418l6.883 12.114a2.39 2.39 0 0 1 0 2.373l-6.95 12.081zM32 52.371c-1.435 0-2.865-.152-4.268-.453a2.382 2.382 0 0 1-1.543-3.522l6.936-12.061a2.381 2.381 0 0 1 2.065-1.196h13.892a2.379 2.379 0 0 1 2.354 1.991c.061.37.035.747-.077 1.105C48.722 46.425 41.046 52.37 32 52.37zm1.132-24.712-6.861-12.082a2.383 2.383 0 0 1 1.554-3.513A20.204 20.204 0 0 1 32 11.63c9.046 0 16.722 5.946 19.354 14.14a2.385 2.385 0 0 1-1.199 2.84 2.383 2.383 0 0 1-1.077.256H35.207a2.376 2.376 0 0 1-2.075-1.207z"/></svg>