<svg xmlns="http://www.w3.org/2000/svg" fill="none" viewBox="0 0 64 64" id="Cog--Streamline-Ionic-Filled" height="64" width="64">
  <desc>
    Cog Streamline Icon: https://streamlinehq.com
  </desc>
  <path fill="#000000" d="M63.36 31.085066666666666c-0.020399999999999998 -0.37626666666666664 -0.17319999999999997 -0.7330666666666665 -0.43146666666666667 -1.0074666666666667 -0.25826666666666664 -0.2744 -0.6053333333333333 -0.44813333333333333 -0.9797333333333333 -0.4913333333333333l-3.8657333333333335 -0.6255999999999999c-0.17386666666666664 -0.028399999999999998 -0.33386666666666664 -0.11253333333333333 -0.45613333333333334 -0.2392 -0.12213333333333333 -0.12693333333333334 -0.20026666666666665 -0.29 -0.2224 -0.4648 -0.07373333333333333 -0.4749333333333333 -0.15066666666666667 -0.968 -0.2561333333333333 -1.4353333333333333 -0.033999999999999996 -0.16999999999999998 -0.014133333333333333 -0.34639999999999993 0.056933333333333336 -0.5045333333333333 0.07106666666666667 -0.15813333333333332 0.18973333333333334 -0.2901333333333333 0.33946666666666664 -0.3774666666666667l3.434533333333333 -1.9073333333333333c0.3410666666666667 -0.17386666666666664 0.6062666666666666 -0.4669333333333333 0.7453333333333334 -0.8236 0.13893333333333333 -0.35653333333333337 0.142 -0.7518666666666666 0.0084 -1.1107999999999998l-0.5954666666666666 -1.643333333333333c-0.1304 -0.3598666666666666 -0.3893333333333333 -0.6592 -0.7268 -0.8402666666666666 -0.3373333333333333 -0.18106666666666665 -0.7297333333333333 -0.2312 -1.1018666666666665 -0.1412l-3.852266666666667 0.7537333333333334c-0.17226666666666668 0.03093333333333333 -0.3497333333333333 0.006533333333333333 -0.5073333333333333 -0.0696 -0.15746666666666664 -0.07586666666666667 -0.28706666666666664 -0.19986666666666666 -0.3701333333333333 -0.354 -0.22466666666666668 -0.42066666666666663 -0.4689333333333333 -0.8488 -0.7235999999999999 -1.2694666666666665 -0.09266666666666667 -0.14986666666666665 -0.13599999999999998 -0.3249333333333333 -0.124 -0.5005333333333333 0.011866666666666666 -0.17573333333333332 0.0784 -0.3433333333333333 0.19013333333333332 -0.4796l2.5632 -2.9610666666666665c0.26039999999999996 -0.27946666666666664 0.41 -0.6441333333333332 0.42079999999999995 -1.0259999999999998 0.010933333333333333 -0.38199999999999995 -0.11786666666666668 -0.7545333333333333 -0.362 -1.0485333333333333l-1.1187999999999998 -1.3433333333333333c-0.2432 -0.29466666666666663 -0.5871999999999999 -0.48879999999999996 -0.9657333333333333 -0.5445333333333333 -0.37826666666666664 -0.05573333333333333 -0.7636 0.030799999999999998 -1.0816 0.24293333333333333l-3.3728 2.0249333333333333c-0.14959999999999998 0.08973333333333333 -0.3237333333333333 0.12866666666666665 -0.4973333333333333 0.11173333333333332 -0.17346666666666666 -0.0172 -0.3369333333333333 -0.08946666666666667 -0.46599999999999997 -0.20679999999999998 -0.37253333333333327 -0.3270666666666666 -0.754 -0.6421333333333332 -1.1112 -0.9331999999999999 -0.13706666666666667 -0.10813333333333333 -0.2364 -0.2573333333333333 -0.2828 -0.4256 -0.04666666666666667 -0.1684 -0.03853333333333333 -0.3472 0.023466666666666667 -0.5106666666666666l1.3961333333333332 -3.6786666666666665c0.15213333333333331 -0.35106666666666664 0.16999999999999998 -0.7457333333333334 0.049999999999999996 -1.1089333333333333 -0.11973333333333333 -0.36333333333333334 -0.3688 -0.6699999999999999 -0.6997333333333333 -0.8617333333333332l-1.5214666666666665 -0.888c-0.3310666666666666 -0.19093333333333332 -0.7212000000000001 -0.25306666666666666 -1.0953333333333333 -0.17426666666666668 -0.37426666666666664 0.07866666666666666 -0.7062666666666666 0.29266666666666663 -0.9324 0.6009333333333333l-2.4650666666666665 3.0968c-0.08866666666666667 0.13466666666666666 -0.22146666666666665 0.23413333333333333 -0.3756 0.28146666666666664 -0.154 0.047333333333333324 -0.3197333333333333 0.039599999999999996 -0.4688 -0.02213333333333333 -0.092 -0.037599999999999995 -0.8698666666666666 -0.3557333333333333 -1.4743999999999997 -0.5577333333333333 -0.16599999999999998 -0.054133333333333325 -0.3101333333333333 -0.15986666666666666 -0.41159999999999997 -0.3017333333333333 -0.10146666666666666 -0.14186666666666664 -0.1548 -0.3124 -0.15239999999999998 -0.48679999999999995l0.0588 -3.9306666666666663c0.02093333333333333 -0.3837333333333333 -0.09853333333333332 -0.762 -0.3362666666666666 -1.064 -0.238 -0.302 -0.5775999999999999 -0.5067999999999999 -0.9557333333333333 -0.5762666666666666L36.5608 0.9598666666666666c-0.3761333333333333 -0.06493333333333333 -0.7630666666666667 0.008799999999999999 -1.0889333333333333 0.2076 -0.32586666666666664 0.19893333333333332 -0.5684 0.5092 -0.6826666666666666 0.8734666666666666l-1.2816 3.7405333333333335c-0.05813333333333333 0.16613333333333333 -0.1681333333333333 0.30906666666666666 -0.31346666666666667 0.4081333333333333 -0.14533333333333331 0.09906666666666666 -0.3188 0.1489333333333333 -0.4945333333333333 0.14213333333333333h-1.4701333333333333c-0.1744 0.0036 -0.34559999999999996 -0.04786666666666667 -0.48906666666666665 -0.1472 -0.1433333333333333 -0.09946666666666666 -0.252 -0.24146666666666666 -0.31 -0.4061333333333333l-1.2754666666666665 -3.7194666666666665c-0.11213333333333332 -0.3668 -0.3542666666666666 -0.6802666666666666 -0.6809333333333334 -0.8814666666666666 -0.32666666666666666 -0.2012 -0.7154666666666666 -0.2764 -1.0936 -0.2116l-1.7293333333333332 0.3016c-0.37546666666666667 0.06893333333333333 -0.7134666666666667 0.27186666666666665 -0.9507999999999999 0.5709333333333333 -0.2373333333333333 0.29919999999999997 -0.358 0.6744 -0.33973333333333333 1.0558666666666667l0.06026666666666666 3.9441333333333333c0.0012 0.17693333333333333 -0.05466666666666667 0.34959999999999997 -0.15973333333333334 0.49226666666666663 -0.10466666666666666 0.14266666666666666 -0.25293333333333334 0.2476 -0.4222666666666666 0.29919999999999997 -0.3452 0.13426666666666665 -1.0945333333333331 0.42066666666666663 -1.4352 0.5473333333333332 -0.3016 0.10853333333333333 -0.6302666666666666 -0.010533333333333334 -0.8956 -0.31666666666666665l-2.4516 -3.015333333333333c-0.2248 -0.3101333333333333 -0.5565333333333333 -0.5262666666666667 -0.9312 -0.6066666666666667 -0.3745333333333333 -0.0804 -0.7657333333333334 -0.0196 -1.0981333333333332 0.17093333333333333l-1.5166666666666666 0.8789333333333333c-0.33466666666666667 0.19213333333333332 -0.5864 0.5013333333333333 -0.7066666666666667 0.8678666666666667 -0.12026666666666666 0.3666666666666667 -0.10066666666666665 0.7647999999999999 0.05533333333333333 1.1178666666666666l1.3945333333333334 3.6696c0.060933333333333325 0.16373333333333334 0.06893333333333333 0.3423999999999999 0.022933333333333333 0.5109333333333332 -0.046 0.1684 -0.14373333333333332 0.31826666666666664 -0.2792 0.42839999999999995 -0.36626666666666663 0.3016 -0.7418666666666667 0.6032 -1.1157333333333332 0.9378666666666666 -0.1284 0.11626666666666666 -0.2904 0.18813333333333332 -0.4629333333333333 0.20546666666666663 -0.172 0.017333333333333333 -0.34559999999999996 -0.02093333333333333 -0.4945333333333333 -0.10906666666666666L10.590666666666666 10.853333333333333c-0.31999999999999995 -0.20826666666666666 -0.7050666666666667 -0.2925333333333333 -1.0829333333333333 -0.2368 -0.37786666666666663 0.055466666666666664 -0.7222666666666666 0.24679999999999996 -0.9689333333333333 0.5384l-1.1141333333333332 1.3402666666666667c-0.2476 0.29186666666666666 -0.3786666666666666 0.6646666666666666 -0.36839999999999995 1.0473333333333332 0.010266666666666667 0.38239999999999996 0.16133333333333333 0.7477333333333332 0.4241333333333333 1.0257333333333332l2.5750666666666664 2.958133333333333c0.1144 0.13319999999999999 0.18266666666666667 0.2997333333333333 0.19493333333333332 0.47506666666666664 0.011999999999999999 0.17519999999999997 -0.0324 0.34959999999999997 -0.12706666666666666 0.4974666666666666 -0.25786666666666663 0.40986666666666666 -0.5035999999999999 0.8412 -0.7266666666666667 1.2724 -0.08333333333333333 0.1552 -0.214 0.27986666666666665 -0.37253333333333327 0.3562666666666666 -0.1588 0.0764 -0.33759999999999996 0.10066666666666665 -0.5109333333333332 0.06893333333333333l-3.846133333333333 -0.7433333333333333c-0.37239999999999995 -0.08986666666666666 -0.7647999999999999 -0.03933333333333333 -1.1023999999999998 0.1416 -0.33759999999999996 0.18106666666666665 -0.5968 0.48 -0.728 0.8398666666666667l-0.6030666666666666 1.6403999999999999c-0.13333333333333333 0.35933333333333334 -0.13013333333333332 0.7549333333333333 0.008799999999999999 1.1119999999999999 0.13893333333333333 0.3572 0.40399999999999997 0.6507999999999999 0.7450666666666665 0.8253333333333333l3.434533333333333 1.9073333333333333c0.15439999999999998 0.0852 0.2769333333333333 0.21839999999999998 0.34906666666666664 0.3793333333333333 0.072 0.16119999999999998 0.08973333333333333 0.3413333333333333 0.0504 0.5132l-0.03613333333333333 0.19146666666666667c-0.0784 0.42066666666666663 -0.1508 0.8186666666666667 -0.22013333333333332 1.2422666666666666 -0.023999999999999997 0.17279999999999998 -0.10186666666666666 0.33346666666666663 -0.22266666666666668 0.4590666666666666 -0.12079999999999999 0.1256 -0.27826666666666666 0.20986666666666667 -0.4497333333333333 0.24053333333333332l-3.873333333333333 0.6257333333333333c-0.3786666666666666 0.04653333333333333 -0.7275999999999999 0.2293333333333333 -0.9814666666666666 0.5141333333333333 -0.2538666666666667 0.28506666666666663 -0.3953333333333333 0.6526666666666666 -0.39799999999999996 1.0342666666666664v1.746c-0.0022666666666666664 0.38306666666666667 0.13786666666666667 0.7531999999999999 0.39293333333333336 1.0390666666666666 0.25506666666666666 0.2857333333333333 0.6072 0.4666666666666666 0.9881333333333333 0.5077333333333334l3.8717333333333332 0.6242666666666666c0.174 0.028266666666666666 0.3341333333333333 0.11213333333333332 0.4564 0.23893333333333333 0.12226666666666666 0.12706666666666666 0.20026666666666665 0.2901333333333333 0.222 0.46519999999999995 0.07386666666666666 0.47626666666666667 0.1508 0.9677333333333333 0.25639999999999996 1.4350666666666667 0.033999999999999996 0.17026666666666668 0.014 0.3466666666666667 -0.05706666666666666 0.5046666666666666 -0.07106666666666667 0.15813333333333332 -0.18973333333333334 0.2901333333333333 -0.33946666666666664 0.3774666666666667l-3.433066666666667 1.9102666666666668c-0.3410666666666667 0.17386666666666664 -0.6062666666666666 0.46706666666666663 -0.7451999999999999 0.8236 -0.13906666666666667 0.3566666666666667 -0.14213333333333333 0.7519999999999999 -0.008666666666666666 1.1107999999999998l0.6030666666666666 1.643333333333333c0.13093333333333332 0.3598666666666666 0.3897333333333333 0.6587999999999999 0.7272 0.8397333333333333 0.3373333333333333 0.18106666666666665 0.7294666666666667 0.23159999999999997 1.1017333333333332 0.14173333333333332l3.852133333333333 -0.7462666666666666c0.17226666666666668 -0.0312 0.35 -0.007066666666666666 0.5075999999999999 0.06906666666666667 0.15773333333333334 0.07613333333333333 0.2872 0.20039999999999997 0.3698666666666666 0.35453333333333337 0.22613333333333333 0.4221333333333333 0.4688 0.8488 0.7237333333333332 1.2696 0.09293333333333333 0.14973333333333333 0.13653333333333334 0.3248 0.12466666666666666 0.5006666666666666 -0.011999999999999999 0.17573333333333332 -0.07866666666666666 0.34359999999999996 -0.19106666666666666 0.47919999999999996L7.5 49.413999999999994c-0.2634666666666666 0.27746666666666664 -0.4164 0.6414666666666666 -0.43039999999999995 1.024 -0.013866666666666666 0.3821333333333333 0.1124 0.7562666666666666 0.35506666666666664 1.0522666666666667l1.1170666666666667 1.3433333333333333c0.2432 0.29506666666666664 0.5874666666666666 0.4893333333333333 0.9658666666666667 0.5451999999999999 0.3781333333333333 0.0556 0.7637333333333333 -0.0312 1.0816 -0.2437333333333333l3.3728 -2.0248c0.14959999999999998 -0.08959999999999999 0.32386666666666664 -0.12866666666666665 0.4973333333333333 -0.11173333333333332 0.17346666666666666 0.017066666666666667 0.3368 0.08959999999999999 0.46599999999999997 0.20666666666666667 0.3738666666666666 0.3272 0.754 0.6422666666666667 1.1110666666666666 0.9333333333333332 0.1372 0.1084 0.23626666666666665 0.2573333333333333 0.28306666666666663 0.42546666666666666 0.04706666666666666 0.16826666666666668 0.03933333333333333 0.34706666666666663 -0.02213333333333333 0.5107999999999999l-1.3976 3.6786666666666665c-0.152 0.35106666666666664 -0.16973333333333332 0.7457333333333334 -0.049999999999999996 1.1088 0.11986666666666665 0.36346666666666666 0.36893333333333334 0.6702666666666667 0.6997333333333333 0.8617333333333332l1.5242666666666667 0.8805333333333333c0.3312 0.19119999999999998 0.7212000000000001 0.2536 1.0952 0.17506666666666665 0.37426666666666664 -0.0784 0.7064 -0.292 0.9328 -0.6002666666666666l2.4951999999999996 -3.068c0.21093333333333333 -0.26093333333333335 0.5428 -0.37706666666666666 0.7885333333333333 -0.27746666666666664 0.5245333333333333 0.21706666666666666 0.876 0.3392 1.4986666666666668 0.5473333333333332 0.16586666666666666 0.054133333333333325 0.31 0.15986666666666666 0.41173333333333334 0.3017333333333333 0.10173333333333334 0.14173333333333332 0.15546666666666664 0.31226666666666664 0.1536 0.48679999999999995l-0.060399999999999995 3.9274666666666667c-0.020266666666666665 0.3836 0.0996 0.7616 0.3373333333333333 1.0634666666666666 0.23786666666666667 0.3017333333333333 0.5771999999999999 0.5069333333333332 0.9547999999999999 0.5768l1.7264 0.3016c0.3761333333333333 0.06573333333333332 0.7634666666666666 -0.007866666666666666 1.0893333333333333 -0.20666666666666667 0.32599999999999996 -0.19893333333333332 0.5684 -0.5097333333333333 0.6821333333333334 -0.8744000000000001l1.2816 -3.7344c0.057999999999999996 -0.16613333333333333 0.16773333333333332 -0.30933333333333335 0.3132 -0.4085333333333333 0.1456 -0.09906666666666666 0.31906666666666667 -0.1488 0.4949333333333333 -0.14186666666666664h1.4698666666666667c0.17466666666666666 -0.0038666666666666663 0.346 0.0476 0.4894666666666666 0.14706666666666665 0.14346666666666666 0.09946666666666666 0.252 0.2417333333333333 0.3097333333333333 0.4064l1.2770666666666666 3.719333333333333c0.09893333333333333 0.3229333333333333 0.29866666666666664 0.6055999999999999 0.57 0.8068 0.27146666666666663 0.20093333333333332 0.5998666666666667 0.3097333333333333 0.9376 0.3104 0.09 0.0002666666666666667 0.17986666666666665 -0.007866666666666666 0.26839999999999997 -0.024133333333333333l1.7293333333333332 -0.30146666666666666c0.3756 -0.06893333333333333 0.7133333333333334 -0.27186666666666665 0.9509333333333332 -0.5709333333333333 0.2372 -0.29919999999999997 0.358 -0.6745333333333333 0.33959999999999996 -1.0558666666666667l-0.06026666666666666 -3.9441333333333333c-0.0013333333333333333 -0.17373333333333332 0.053066666666666665 -0.3433333333333333 0.15466666666666667 -0.4842666666666667 0.1016 -0.14106666666666667 0.24546666666666667 -0.24586666666666668 0.41079999999999994 -0.2997333333333333 0.5788 -0.19453333333333334 0.986 -0.35133333333333333 1.3433333333333333 -0.49l0.0904 -0.034666666666666665c0.46733333333333327 -0.16146666666666665 0.6934666666666667 0.034666666666666665 0.8246666666666667 0.19746666666666668l2.525333333333333 3.1104000000000003c0.2264 0.3076 0.5582666666666667 0.5212 0.9321333333333334 0.5994666666666666 0.3738666666666666 0.07853333333333333 0.7633333333333333 0.016399999999999998 1.0942666666666665 -0.17426666666666668l1.5181333333333333 -0.8790666666666667c0.33226666666666665 -0.19173333333333334 0.5821333333333333 -0.4992 0.7018666666666666 -0.8634666666666666 0.12 -0.36439999999999995 0.10133333333333333 -0.7599999999999999 -0.05186666666666666 -1.1116l-1.3930666666666665 -3.6696c-0.061599999999999995 -0.1636 -0.06999999999999999 -0.3422666666666666 -0.024133333333333333 -0.5107999999999999 0.0456 -0.16866666666666666 0.14306666666666668 -0.31866666666666665 0.2788 -0.42866666666666664 0.36639999999999995 -0.30146666666666666 0.7417333333333334 -0.6030666666666666 1.1157333333333332 -0.9377333333333333 0.12919999999999998 -0.1164 0.2925333333333333 -0.1884 0.4654666666666667 -0.2052 0.17306666666666665 -0.0168 0.34706666666666663 0.022399999999999996 0.4964 0.11173333333333332l3.3757333333333333 2.0202666666666667c0.3201333333333333 0.20866666666666667 0.7050666666666667 0.2932 1.0832 0.23759999999999998 0.3777333333333333 -0.055466666666666664 0.7222666666666666 -0.2472 0.9688 -0.5390666666666666l1.1156 -1.3419999999999999c0.2477333333333333 -0.2917333333333333 0.3788 -0.6644 0.36839999999999995 -1.0469333333333333 -0.010266666666666667 -0.3825333333333333 -0.16119999999999998 -0.7477333333333332 -0.424 -1.0259999999999998l-2.5722666666666667 -2.9656000000000002c-0.11426666666666666 -0.13333333333333333 -0.18253333333333333 -0.2997333333333333 -0.19466666666666665 -0.47506666666666664 -0.012266666666666665 -0.17506666666666665 0.03213333333333333 -0.34959999999999997 0.1268 -0.4974666666666666 0.25786666666666663 -0.4086666666666666 0.5035999999999999 -0.8397333333333333 0.7268 -1.2725333333333333 0.08373333333333333 -0.15453333333333333 0.21439999999999998 -0.2792 0.37293333333333334 -0.35546666666666665 0.15853333333333333 -0.0764 0.3372 -0.10066666666666665 0.5106666666666666 -0.0696l3.8414666666666664 0.7493333333333334c0.37239999999999995 0.08986666666666666 0.7649333333333332 0.039466666666666664 1.1025333333333331 -0.1416 0.33759999999999996 -0.1809333333333333 0.5966666666666667 -0.48 0.7278666666666667 -0.84l0.5954666666666666 -1.6403999999999999c0.13333333333333333 -0.3589333333333333 0.13013333333333332 -0.7541333333333333 -0.008799999999999999 -1.1110666666666666s-0.4041333333333333 -0.6504 -0.7450666666666665 -0.8246666666666667l-3.4374666666666664 -1.9102666666666668c-0.15226666666666666 -0.08626666666666666 -0.2728 -0.21893333333333334 -0.3437333333333333 -0.37893333333333334 -0.07066666666666666 -0.15999999999999998 -0.08826666666666666 -0.33853333333333335 -0.04973333333333333 -0.5090666666666666l0.03613333333333333 -0.1916c0.07826666666666666 -0.4205333333333333 0.15066666666666667 -0.8185333333333333 0.22013333333333332 -1.2424 0.023999999999999997 -0.17253333333333332 0.10186666666666666 -0.3330666666666666 0.2225333333333333 -0.4586666666666666 0.12079999999999999 -0.1257333333333333 0.27826666666666666 -0.20986666666666667 0.44986666666666664 -0.24066666666666664l3.873333333333333 -0.6244c0.3796 -0.04573333333333333 0.7296 -0.22826666666666665 0.9845333333333333 -0.5136 0.25466666666666665 -0.2853333333333333 0.3966666666666666 -0.6537333333333333 0.39946666666666664 -1.0362666666666667v-1.7654666666666667ZM20.775333333333332 45.25733333333333c-0.18786666666666665 0.32666666666666666 -0.45066666666666666 0.6042666666666666 -0.7666666666666666 0.8095999999999999 -0.31586666666666663 0.20546666666666663 -0.6761333333333333 0.3329333333333333 -1.0509333333333333 0.3721333333333333 -0.3748 0.0392 -0.7537333333333334 -0.011199999999999998 -1.1052 -0.14679999999999999 -0.3517333333333333 -0.13573333333333332 -0.6659999999999999 -0.35306666666666664 -0.9173333333333332 -0.6338666666666666 -3.3966666666666665 -3.755466666666667 -5.272133333333333 -8.642133333333334 -5.2604 -13.705866666666667 0.011733333333333333 -5.063733333333333 1.909733333333333 -9.941466666666667 5.323733333333333 -13.681333333333331 0.25266666666666665 -0.2808 0.5684 -0.4974666666666666 0.9211999999999999 -0.6322666666666666 0.3526666666666667 -0.13453333333333334 0.7325333333333333 -0.18359999999999999 1.1078666666666666 -0.14293333333333333 0.3756 0.040799999999999996 0.736 0.17026666666666668 1.0514666666666665 0.3776 0.3157333333333333 0.20746666666666663 0.5774666666666666 0.48679999999999995 0.7641333333333333 0.8152l6.882533333333333 12.114266666666666c0.20666666666666667 0.36146666666666666 0.3153333333333333 0.7704 0.3153333333333333 1.1865333333333332 0 0.4162666666666666 -0.10866666666666666 0.8253333333333333 -0.3153333333333333 1.1865333333333332l-6.950399999999999 12.081199999999999ZM32 52.370533333333334c-1.4348 0.0005333333333333334 -2.8654666666666664 -0.1512 -4.2684 -0.45226666666666665 -0.36533333333333334 -0.08146666666666666 -0.7064 -0.24813333333333332 -0.9954666666666667 -0.4861333333333333 -0.2889333333333333 -0.23813333333333334 -0.518 -0.5408 -0.6681333333333332 -0.8838666666666667 -0.15026666666666666 -0.34306666666666663 -0.21746666666666664 -0.7166666666666666 -0.19639999999999996 -1.0905333333333331 0.021066666666666668 -0.3737333333333333 0.13 -0.7374666666666667 0.3177333333333333 -1.0614666666666666l6.935333333333333 -12.061466666666664c0.20879999999999999 -0.36333333333333334 0.5094666666666666 -0.6653333333333333 0.8724 -0.8752 0.36239999999999994 -0.2101333333333333 0.7742666666666667 -0.32053333333333334 1.1932 -0.3204h13.891866666666667c0.37426666666666664 -0.0006666666666666666 0.7433333333333333 0.08693333333333332 1.0773333333333333 0.2557333333333333 0.3341333333333333 0.16866666666666666 0.6237333333333333 0.41359999999999997 0.8454666666666666 0.7150666666666666 0.22159999999999996 0.30146666666666666 0.36933333333333335 0.6509333333333334 0.43066666666666664 1.02 0.061599999999999995 0.36906666666666665 0.03533333333333333 0.7474666666666666 -0.0768 1.1045333333333334 -2.6370666666666667 8.189733333333333 -10.312666666666665 14.136 -19.358666666666664 14.136Zm1.1322666666666665 -24.711066666666667 -6.861466666666666 -12.082666666666665c-0.186 -0.32426666666666665 -0.2929333333333333 -0.6881333333333333 -0.3124 -1.0614666666666666 -0.0192 -0.37346666666666667 0.049466666666666666 -0.7461333333333333 0.20053333333333334 -1.0884 0.15159999999999998 -0.34186666666666665 0.38106666666666666 -0.6434666666666666 0.6705333333333333 -0.8802666666666666 0.28946666666666665 -0.23666666666666664 0.6305333333333333 -0.4021333333333333 0.9957333333333334 -0.48266666666666663 1.3726666666666667 -0.28933333333333333 2.7718666666666665 -0.43479999999999996 4.174799999999999 -0.43426666666666663 9.046133333333334 0 16.721733333333333 5.946266666666666 19.354266666666668 14.140666666666664 0.11186666666666667 0.35706666666666664 0.13826666666666665 0.7354666666666666 0.0768 1.1046666666666667 -0.06133333333333333 0.36893333333333334 -0.20906666666666665 0.7186666666666667 -0.43066666666666664 1.02 -0.22173333333333334 0.30133333333333334 -0.5113333333333333 0.5462666666666667 -0.8453333333333333 0.7150666666666666 -0.3341333333333333 0.16853333333333334 -0.7031999999999999 0.2561333333333333 -1.0774666666666666 0.2554666666666666H35.2068c-0.4216 0.0009333333333333333 -0.8358666666666666 -0.11026666666666665 -1.2002666666666666 -0.32226666666666665 -0.3646666666666667 -0.21186666666666668 -0.6664 -0.5169333333333332 -0.8742666666666665 -0.8838666666666667Z" stroke-width="1.3333"></path>
</svg>